<svg viewBox="0 0 24 24" xmlns="http://www.w3.org/2000/svg"><path d="m0 0h24v24h-24z" fill="none"/><path d="m2.048 22 1.406-5.136a9.894 9.894 0 0 1 -1.323-4.955c.002-5.463 4.448-9.909 9.911-9.909a9.848 9.848 0 0 1 7.011 2.906 9.85 9.85 0 0 1 2.9 7.011c-.002 5.464-4.448 9.91-9.91 9.91h-.004a9.913 9.913 0 0 1 -4.736-1.206zm5.497-3.172.301.179a8.214 8.214 0 0 0 4.193 1.148h.003c4.54 0 8.235-3.695 8.237-8.237a8.189 8.189 0 0 0 -2.41-5.828 8.182 8.182 0 0 0 -5.824-2.416c-4.544 0-8.239 3.695-8.241 8.237a8.222 8.222 0 0 0 1.259 4.384l.196.312-.832 3.04zm9.49-4.554c-.062-.103-.227-.165-.475-.289s-1.465-.723-1.692-.806-.392-.124-.557.124-.64.806-.784.971-.289.186-.536.062c-.248-.124-1.046-.385-1.991-1.229-.736-.657-1.233-1.468-1.378-1.715-.144-.248-.015-.382.109-.505.111-.111.248-.289.371-.434.124-.145.165-.248.248-.413s.041-.31-.021-.434-.557-1.343-.763-1.839c-.202-.483-.407-.417-.559-.425-.144-.007-.31-.009-.475-.009a.91.91 0 0 0 -.66.31c-.226.248-.866.847-.866 2.066s.887 2.396 1.011 2.562c.124.165 1.746 2.666 4.23 3.739.591.255 1.052.408 1.412.522.593.189 1.133.162 1.56.098.476-.071 1.465-.599 1.671-1.177.206-.58.206-1.075.145-1.179z"/></svg>